<?xml version="1.0" encoding="UTF-8"?>
<svg id="Layer_1" data-name="Layer 1" xmlns="http://www.w3.org/2000/svg" viewBox="0 0 24 24">
  <defs>
    <style>
      .cls-1 {
        fill: #93a1aa;
      }
    </style>
  </defs>
  <path class="cls-1" d="M12,22.62c-.35,0-.69-.1-1-.31-2.08-1.41-5.1-3.6-7.26-6.24C1.53,13.38.47,10.61.5,7.61c.04-3.43,2.79-6.23,6.14-6.23,2.66,0,4.43,1.63,5.36,2.82.93-1.19,2.7-2.82,5.36-2.82,3.35,0,6.11,2.79,6.14,6.23.03,3-1.03,5.76-3.24,8.46-2.17,2.64-5.18,4.82-7.26,6.24-.3.21-.65.31-.99.31ZM6.64,3.15c-2.39,0-4.35,2.01-4.37,4.48-.06,5.79,4.89,9.93,9.73,13.21,4.85-3.29,9.79-7.43,9.73-13.21-.03-2.47-1.99-4.48-4.37-4.48-2.98,0-4.55,3.02-4.57,3.05-.15.3-.46.49-.79.49s-.64-.19-.79-.49c-.01-.03-1.58-3.05-4.57-3.05Z"/>
</svg>