<?xml version="1.0" encoding="UTF-8"?>
<svg id="Layer_1" data-name="Layer 1" xmlns="http://www.w3.org/2000/svg" viewBox="0 0 24 24">
  <defs>
    <style>
      .cls-1 {
        fill: #fff;
      }

      .cls-2 {
        fill: #24282b;
      }
    </style>
  </defs>
  <circle class="cls-2" cx="12" cy="12" r="12"/>
  <g>
    <path class="cls-1" d="M16.98,14.8v-1.64h-1.63v-.88h1.63v-1.64h.9v1.64h1.63v.88h-1.63v1.64h-.9Z"/>
    <path class="cls-1" d="M11.77,17.96c-3.07-2.08-6.19-4.7-6.16-8.36.02-1.56,1.26-2.83,2.77-2.83,1.89,0,2.88,1.91,2.89,1.93.09.19.29.31.5.31s.41-.12.5-.31c0-.02,1-1.93,2.89-1.93,1.51,0,2.75,1.27,2.77,2.83,0,.12,0,.24-.02.35h1.12c0-.12.01-.24.01-.36-.02-2.17-1.77-3.94-3.89-3.94-1.68,0-2.8,1.03-3.39,1.79-.59-.75-1.71-1.79-3.39-1.79-2.12,0-3.86,1.77-3.89,3.94-.02,1.9.65,3.65,2.05,5.35,1.37,1.67,3.28,3.05,4.6,3.95.19.13.41.2.63.2s.44-.06.63-.19c1.23-.84,2.98-2.11,4.33-3.64h-1.53c-1.02,1.01-2.23,1.9-3.42,2.71Z"/>
  </g>
</svg>