<?xml version="1.0" encoding="UTF-8"?>
<svg id="Layer_1" data-name="Layer 1" xmlns="http://www.w3.org/2000/svg" viewBox="0 0 24 24">
  <defs>
    <style>
      .cls-1 {
        fill: #4f4f4f;
      }

      .cls-2 {
        fill: #fff;
      }
    </style>
  </defs>
  <g>
    <path class="cls-2" d="M16.98,14.8v-1.64h-1.63v-.88h1.63v-1.64h.9v1.64h1.63v.88h-1.63v1.64h-.9Z"/>
    <path class="cls-2" d="M11.77,17.96c-3.07-2.08-6.19-4.7-6.16-8.36.02-1.56,1.26-2.83,2.77-2.83,1.89,0,2.88,1.91,2.89,1.93.09.19.29.31.5.31s.41-.12.5-.31c0-.02,1-1.93,2.89-1.93,1.51,0,2.75,1.27,2.77,2.83,0,.12,0,.24-.02.35h1.12c0-.12.01-.24.01-.36-.02-2.17-1.77-3.94-3.89-3.94-1.68,0-2.8,1.03-3.39,1.79-.59-.75-1.71-1.79-3.39-1.79-2.12,0-3.86,1.77-3.89,3.94-.02,1.9.65,3.65,2.05,5.35,1.37,1.67,3.28,3.05,4.6,3.95.19.13.41.2.63.2s.44-.06.63-.19c1.23-.84,2.98-2.11,4.33-3.64h-1.53c-1.02,1.01-2.23,1.9-3.42,2.71Z"/>
  </g>
  <g>
    <path class="cls-1" d="M15.33,4.44s.36-2.92-2.33-3.85c-.65-.22-1.35-.22-2,0-2.69.94-2.33,3.85-2.33,3.85-6.63,3.59-4.78,9.91-2.49,13.03,1.96,2.68,4.65,5.25,5.38,5.93.12.11.28.17.44.17.08,0,.16-.02.24-.04.07-.03.14-.07.2-.13.73-.68,3.42-3.25,5.38-5.93,2.29-3.13,4.14-9.44-2.49-13.03ZM12,2.57c.72,0,1.3.58,1.3,1.3s-.58,1.3-1.3,1.3-1.3-.58-1.3-1.3.58-1.3,1.3-1.3ZM17.6,12.58c0,1.9-1.54,3.43-3.43,3.43h-4.34c-1.9,0-3.43-1.54-3.43-3.43v-1.19c0-1.9,1.54-3.43,3.43-3.43h4.34c1.9,0,3.43,1.54,3.43,3.43v1.19Z"/>
    <g>
      <circle class="cls-1" cx="9.57" cy="11.98" r="1.3"/>
      <circle class="cls-1" cx="14.43" cy="11.98" r="1.3"/>
    </g>
  </g>
</svg>