<?xml version="1.0" encoding="UTF-8"?>
<svg id="Layer_1" data-name="Layer 1" xmlns="http://www.w3.org/2000/svg" viewBox="0 0 24 24">
  <defs>
    <style>
      .cls-1 {
        fill: #4f4f4f;
      }
    </style>
  </defs>
  <path class="cls-1" d="M14,18.71c-.41,0-.75-.34-.75-.75v-3c0-.69-.56-1.25-1.25-1.25s-1.25.56-1.25,1.25v3c0,.41-.34.75-.75.75s-.75-.34-.75-.75v-3c0-1.52,1.23-2.75,2.75-2.75s2.75,1.23,2.75,2.75v3c0,.41-.34.75-.75.75Z"/>
  <path class="cls-1" d="M22,8.71c-.11,0-.23-.03-.33-.08L12,3.8,2.33,8.64c-.37.19-.82.04-1.01-.34-.19-.37-.04-.82.34-1.01L11.4,2.43c.38-.19.83-.19,1.21,0l9.73,4.87c.37.19.52.64.34,1.01-.13.26-.4.42-.67.42Z"/>
  <path class="cls-1" d="M18,21.71H6c-1.52,0-2.75-1.23-2.75-2.75v-8c0-.41.34-.75.75-.75s.75.34.75.75v8c0,.69.56,1.25,1.25,1.25h12c.69,0,1.25-.56,1.25-1.25v-8c0-.41.34-.75.75-.75s.75.34.75.75v8c0,1.52-1.23,2.75-2.75,2.75Z"/>
</svg>