<?xml version="1.0" encoding="UTF-8"?>
<svg id="Layer_1" data-name="Layer 1" xmlns="http://www.w3.org/2000/svg" viewBox="0 0 24 24">
  <defs>
    <style>
      .cls-1 {
        fill: #4f4f4f;
      }
    </style>
  </defs>
  <path class="cls-1" d="M8.25,21h-2.25c-1.65,0-3-1.35-3-3v-2.25c0-1.65,1.35-3,3-3h2.25c1.65,0,3,1.35,3,3v2.25c0,1.65-1.35,3-3,3ZM6,14.25c-.83,0-1.5.67-1.5,1.5v2.25c0,.83.67,1.5,1.5,1.5h2.25c.83,0,1.5-.67,1.5-1.5v-2.25c0-.83-.67-1.5-1.5-1.5h-2.25ZM18,11.25h-2.25c-1.65,0-3-1.35-3-3v-2.25c0-1.65,1.35-3,3-3h2.25c1.65,0,3,1.35,3,3v2.25c0,1.65-1.35,3-3,3ZM15.75,4.5c-.83,0-1.5.67-1.5,1.5v2.25c0,.83.67,1.5,1.5,1.5h2.25c.83,0,1.5-.67,1.5-1.5v-2.25c0-.83-.67-1.5-1.5-1.5h-2.25ZM8.25,11.25h-2.25c-1.65,0-3-1.35-3-3v-2.25c0-1.65,1.35-3,3-3h2.25c1.65,0,3,1.35,3,3v2.25c0,1.65-1.35,3-3,3ZM6,4.5c-.83,0-1.5.67-1.5,1.5v2.25c0,.83.67,1.5,1.5,1.5h2.25c.83,0,1.5-.67,1.5-1.5v-2.25c0-.83-.67-1.5-1.5-1.5h-2.25Z"/>
  <path class="cls-1" d="M16.88,20.99c-2.27,0-4.12-1.85-4.12-4.12s1.85-4.12,4.12-4.12,4.12,1.85,4.12,4.12-1.85,4.12-4.12,4.12ZM16.88,14.25c-1.44,0-2.62,1.18-2.62,2.62s1.17,2.62,2.62,2.62,2.62-1.18,2.62-2.62-1.18-2.62-2.62-2.62Z"/>
</svg>