<?xml version="1.0" encoding="UTF-8"?>
<svg id="Layer_1" data-name="Layer 1" xmlns="http://www.w3.org/2000/svg" viewBox="0 0 24 24">
  <defs>
    <style>
      .cls-1 {
        fill: #4f4f4f;
      }
    </style>
  </defs>
  <path class="cls-1" d="M19.4,22.75H4.6c-.74,0-1.35-.61-1.35-1.35v-9.4c0-.41.34-.75.75-.75s.75.34.75.75v9.25h14.5v-9.25c0-.41.34-.75.75-.75s.75.34.75.75v9.4c0,.74-.61,1.35-1.35,1.35Z"/>
  <path class="cls-1" d="M21.4,12.75H2.6c-.74,0-1.35-.61-1.35-1.35v-3.8c0-.74.61-1.35,1.35-1.35h18.8c.75,0,1.35.61,1.35,1.35v3.8c0,.74-.61,1.35-1.35,1.35ZM2.75,11.25h18.5v-3.5H2.75v3.5ZM21.4,7.75h0,0Z"/>
  <path class="cls-1" d="M12,22.75c-.41,0-.75-.34-.75-.75V7c0-.41.34-.75.75-.75s.75.34.75.75v15c0,.41-.34.75-.75.75Z"/>
  <path class="cls-1" d="M12,7.75h-4.5c-.87,0-1.68-.34-2.3-.95-.61-.61-.95-1.43-.95-2.3s.34-1.68.95-2.3c.61-.61,1.43-.95,2.3-.95,4.07,0,5.19,5.37,5.24,5.6.04.22-.01.45-.16.62s-.36.27-.58.27ZM7.5,2.75c-.47,0-.91.18-1.24.51-.33.33-.51.77-.51,1.24s.18.91.51,1.24c.33.33.77.51,1.24.51h3.51c-.44-1.29-1.48-3.5-3.51-3.5Z"/>
  <path class="cls-1" d="M16.5,7.75h-4.5c-.22,0-.44-.1-.58-.27s-.2-.4-.16-.62c.05-.23,1.17-5.6,5.24-5.6.87,0,1.68.34,2.3.95.61.61.95,1.43.95,2.3s-.34,1.68-.95,2.3c-.61.61-1.43.95-2.3.95ZM12.99,6.25h3.51c.47,0,.91-.18,1.24-.51.33-.33.51-.77.51-1.24s-.18-.91-.51-1.24c-.33-.33-.77-.51-1.24-.51-2.02,0-3.07,2.21-3.51,3.5Z"/>
</svg>