<?xml version="1.0" encoding="UTF-8"?>
<svg id="Layer_1" data-name="Layer 1" xmlns="http://www.w3.org/2000/svg" viewBox="0 0 24 24">
  <defs>
    <style>
      .cls-1 {
        fill: #93a1aa;
      }
    </style>
  </defs>
  <path class="cls-1" d="M21.03,23.29c-.53,0-.97-.43-.97-.97v-1.29c0-4.45-3.62-8.06-8.06-8.06s-8.06,3.62-8.06,8.06v1.29c0,.53-.43.97-.97.97s-.97-.43-.97-.97v-1.29c0-5.51,4.49-10,10-10s10,4.49,10,10v1.29c0,.53-.43.97-.97.97Z"/>
  <path class="cls-1" d="M12,12.97c-3.38,0-6.13-2.75-6.13-6.13S8.62.71,12,.71s6.13,2.75,6.13,6.13-2.75,6.13-6.13,6.13ZM12,2.65c-2.31,0-4.19,1.88-4.19,4.19s1.88,4.19,4.19,4.19,4.19-1.88,4.19-4.19-1.88-4.19-4.19-4.19Z"/>
</svg>