<?xml version="1.0" encoding="UTF-8"?>
<svg id="Layer_1" data-name="Layer 1" xmlns="http://www.w3.org/2000/svg" viewBox="0 0 24 24">
  <defs>
    <style>
      .cls-1 {
        fill: #4f4f4f;
      }

      .cls-2 {
        fill: #fff;
      }
    </style>
  </defs>
  <g>
    <path class="cls-2" d="M16.98,14.8v-1.64h-1.63v-.88h1.63v-1.64h.9v1.64h1.63v.88h-1.63v1.64h-.9Z"/>
    <path class="cls-2" d="M11.77,17.96c-3.07-2.08-6.19-4.7-6.16-8.36.02-1.56,1.26-2.83,2.77-2.83,1.89,0,2.88,1.91,2.89,1.93.09.19.29.31.5.31s.41-.12.5-.31c0-.02,1-1.93,2.89-1.93,1.51,0,2.75,1.27,2.77,2.83,0,.12,0,.24-.02.35h1.12c0-.12.01-.24.01-.36-.02-2.17-1.77-3.94-3.89-3.94-1.68,0-2.8,1.03-3.39,1.79-.59-.75-1.71-1.79-3.39-1.79-2.12,0-3.86,1.77-3.89,3.94-.02,1.9.65,3.65,2.05,5.35,1.37,1.67,3.28,3.05,4.6,3.95.19.13.41.2.63.2s.44-.06.63-.19c1.23-.84,2.98-2.11,4.33-3.64h-1.53c-1.02,1.01-2.23,1.9-3.42,2.71Z"/>
  </g>
  <g>
    <path class="cls-1" d="M20.21,23.5H3.79c-1.81,0-3.29-1.47-3.29-3.29V5.43c0-1.81,1.47-3.29,3.29-3.29h16.43c1.81,0,3.29,1.47,3.29,3.29v14.79c0,1.81-1.47,3.29-3.29,3.29ZM3.79,3.79c-.91,0-1.64.74-1.64,1.64v14.79c0,.91.74,1.64,1.64,1.64h16.43c.91,0,1.64-.74,1.64-1.64V5.43c0-.91-.74-1.64-1.64-1.64H3.79Z"/>
    <circle class="cls-1" cx="14.05" cy="10.77" r="1.23"/>
    <circle class="cls-1" cx="18.16" cy="10.77" r="1.23"/>
    <circle class="cls-1" cx="14.05" cy="14.87" r="1.23"/>
    <circle class="cls-1" cx="18.16" cy="14.87" r="1.23"/>
    <circle class="cls-1" cx="5.84" cy="14.87" r="1.23"/>
    <circle class="cls-1" cx="9.95" cy="14.87" r="1.23"/>
    <circle class="cls-1" cx="5.84" cy="18.98" r="1.23"/>
    <circle class="cls-1" cx="9.95" cy="18.98" r="1.23"/>
    <circle class="cls-1" cx="14.05" cy="18.98" r="1.23"/>
    <path class="cls-1" d="M18.57,3.79c-.45,0-.82-.37-.82-.82v-1.64c0-.45.37-.82.82-.82s.82.37.82.82v1.64c0,.45-.37.82-.82.82ZM5.43,3.79c-.45,0-.82-.37-.82-.82v-1.64c0-.45.37-.82.82-.82s.82.37.82.82v1.64c0,.45-.37.82-.82.82Z"/>
    <rect class="cls-1" x="1.32" y="6.25" width="21.36" height="1.64"/>
  </g>
</svg>