<?xml version="1.0" encoding="UTF-8"?>
<svg id="Layer_1" data-name="Layer 1" xmlns="http://www.w3.org/2000/svg" viewBox="0 0 24 24">
  <defs>
    <style>
      .cls-1 {
        fill: #93a1aa;
      }
    </style>
  </defs>
  <path class="cls-1" d="M10.07,19.64C4.79,19.64.5,15.35.5,10.07S4.79.5,10.07.5h0c5.28,0,9.57,4.29,9.57,9.57,0,5.28-4.29,9.57-9.57,9.57ZM10.07,2.27c-4.3,0-7.8,3.5-7.8,7.8s3.5,7.8,7.8,7.8,7.8-3.5,7.8-7.8c0-4.3-3.5-7.8-7.8-7.8h0Z"/>
  <path class="cls-1" d="M22.62,23.5c-.23,0-.45-.09-.63-.26l-6.07-6.07c-.35-.35-.35-.91,0-1.25.35-.35.91-.35,1.25,0l6.07,6.07c.35.35.35.91,0,1.25-.17.17-.4.26-.63.26Z"/>
</svg>